<svg id="Calque_1" data-name="Calque 1" xmlns="http://www.w3.org/2000/svg" xmlns:xlink="http://www.w3.org/1999/xlink" viewBox="0 0 230 174">
  <defs>
    <style>
      .cls-1 {
        fill: #70b52c;
      }

      .cls-2 {
        fill: #6fb643;
      }

      .cls-3 {
        fill: url(#Dégradé_sans_nom_14);
      }

      .cls-4 {
        fill: url(#Dégradé_sans_nom_24);
      }

      .cls-5 {
        fill: #fff;
      }
    </style>
    <linearGradient id="Dégradé_sans_nom_14" data-name="Dégradé sans nom 14" x1="118.25" y1="74.96" x2="117.76" y2="36.42" gradientUnits="userSpaceOnUse">
      <stop offset="0" stop-color="#f49e56"/>
      <stop offset="0.3" stop-color="#f4a959"/>
      <stop offset="0.83" stop-color="#f6c862"/>
      <stop offset="1" stop-color="#f6d365"/>
    </linearGradient>
    <linearGradient id="Dégradé_sans_nom_24" data-name="Dégradé sans nom 24" x1="67.81" y1="122.67" x2="128.77" y2="81.66" gradientUnits="userSpaceOnUse">
      <stop offset="0" stop-color="#e73c68"/>
      <stop offset="0.33" stop-color="#f07d5a"/>
      <stop offset="0.64" stop-color="#f8b44d"/>
      <stop offset="0.87" stop-color="#fdd546"/>
      <stop offset="1" stop-color="#ffe243"/>
    </linearGradient>
  </defs>
  <title>190825-logo</title>
  <g id="_Groupe_" data-name="&lt;Groupe&gt;">
    <g id="_Groupe_2" data-name="&lt;Groupe&gt;">
      <g id="_Groupe_3" data-name="&lt;Groupe&gt;">
        <g id="_Groupe_4" data-name="&lt;Groupe&gt;">
          <path id="_Tracé_" data-name="&lt;Tracé&gt;" class="cls-1" d="M187.86,23.89s-8.29,35.47-27.64,21.84c1-2,4.16-4.73,7.5-6.68-3.77.21-7.32,3-8.88,4.47C152.17,21.74,187.86,23.89,187.86,23.89Z"/>
          <path id="_Tracé_2" data-name="&lt;Tracé&gt;" class="cls-2" d="M151.16,33.73c-.94-1-1.76-3.38-2.15-5.66-.7,2.22.19,4.91.67,6.08C137.51,32.55,146.77,16,146.77,16S161.2,27.66,151.16,33.73Z"/>
        </g>
      </g>
      <g id="_Groupe_5" data-name="&lt;Groupe&gt;">
        <path id="_Tracé_3" data-name="&lt;Tracé&gt;" class="cls-3" d="M164.49,59C154,63.2,152,73.91,136.91,73.91c-18.78,0-23.93-16.55-37.34-16.55-10.9,0-16.93,10.91-27.79,15A49.69,49.69,0,0,1,164.49,59Z"/>
        <g id="_Groupe_6" data-name="&lt;Groupe&gt;">
          <g id="_Groupe_7" data-name="&lt;Groupe&gt;">
            <path id="_Tracé_4" data-name="&lt;Tracé&gt;" class="cls-4" d="M164.44,105.29C155,100.82,149.06,92.22,139,92.22c-13.42,0-18.42,15.69-37.2,15.69-16.17,0-17.26-12.28-30-15.68a50.07,50.07,0,0,1-.08-19.85c10.87-4.1,16.9-15,27.8-15,13.41,0,18.56,16.55,37.34,16.55C152,73.91,154,63.2,164.49,59A49.68,49.68,0,0,1,164.44,105.29Z"/>
          </g>
        </g>
      </g>
      <g id="_Groupe_8" data-name="&lt;Groupe&gt;">
        <g id="_Groupe_9" data-name="&lt;Groupe&gt;">
          <path id="_Tracé_transparent_" data-name="&lt;Tracé transparent&gt;" class="cls-5" d="M58.25,106.48a7.78,7.78,0,0,0-2.87.06c0-.12-.07-.24-.07-.35-1-4.45-6.2-7-11.87-6a21.77,21.77,0,0,0-11,5c-9,8.29-10.68,20.82-6.28,28.68,1.67,3.28,3.81,5.39,7.68,7.56,11.42,6,25.54-1.12,30-13.12,2.6-6.84,2.4-13.11-.6-18A8.41,8.41,0,0,0,58.25,106.48Zm2.2,13.58c-1.53,9.31-5.6,15.63-12.28,18.73-6.08,2.72-12.18,1.91-16.08-4-1.64-2.4-3.57-5.54-2.33-13.7.4-2.45,1.06-5.79,4.8-11.06,2.47-3.57,6.07-5.74,11.08-6.79a4.73,4.73,0,0,1,3.67.41c.33.23.6.76.87,2a5.37,5.37,0,0,1-.6,2.87c-.54,1.29-.34,1.75,1.06,2.4a3.57,3.57,0,0,0,3.61-.65,4.45,4.45,0,0,0,1.13-2.22,6.31,6.31,0,0,1,1.27.64C57.92,109.52,61.25,115.2,60.45,120.06Z"/>
          <path id="_Tracé_5" data-name="&lt;Tracé&gt;" class="cls-5" d="M86.21,117.43c1.13-.18,2.47-.76,2.53-1.17.13-1.16-2.34-2.05-4.87-1.59-4.16.75-6.08,3.17-7.61,4.51a1.22,1.22,0,0,0,.07-.47c0-.58.59-2.32-2.33-2.69h.06c-2.67-.47-2.4,1.23-2.53,1.87-1.22,5-4.36,21.35-4.41,21.6-.33,1.88.07,2.64,1.8,2.76h-.06c1.87.23,3.53-.59,3.67-1.82a39.2,39.2,0,0,1,.93-5.68c.6-2.46.8-4.27,1.8-6.38,2.41-5.15,5.27-9.6,11.08-10.94Z"/>
          <path id="_Tracé_transparent_2" data-name="&lt;Tracé transparent&gt;" class="cls-5" d="M216.39,132h-.07c-.73-.76-2.07-.41-3.07,1.11-1.23,1.87-4.85,6.26-6.94,5.51-.73-.24-.86-1.58-.93-2.7-.13-2.92,1.47-6.32,1.93-8.48.34-1.64-.06-2.23-1.93-2.64a2.35,2.35,0,0,0-3.2,1.76c-1.21,3.51-2.47,7.31-5.08,10.59-1,1.17-1.53,1.88-2.4,2.17-.67.29-.47.29-1.2-.53-1.67-1.74-1.95-11,3.74-18.09,2.8-3.33,4-3.63,5.8-1.63.67.64.47,1.46.54,2.16.06,1,1.33,1.76,2.73,1.64,4-.35,1.52-6.63-4.47-7.84h.07a6.89,6.89,0,0,0-5.47.93,18.34,18.34,0,0,0-6.28,7.09c-1.64,3.28-2.92,6.27-3.12,9.58v0c-2.87,3.21-4,4.21-7,5.73-10.62,5.46-10.76-5.17-9.74-8.31.2-.53,1.67-.18,3.14-.35,6.4-.7,11.47-6.32,10.34-11.42-.73-3.27-5.41-5-8.74-3.27A15.44,15.44,0,0,0,171,118c-3.47,4.1-5.27,7.38-6.21,12.65a11.55,11.55,0,0,0-.18,1.86,30.4,30.4,0,0,1-6.89,4.63.18.18,0,0,0,.07-.17c1-6.32,1-5,2-10.71.27-1.17-.2-1.76-1.8-2.23a2.55,2.55,0,0,0-2.94,1.17c-1.89,3-3.87,10.48-8,10.95-1,.12-1.4-.12-1.73-.76-.6-1.17-.54-3.4.2-6,1.07-4,2.47-8.43,6.54-10.66,2.27-1.23,3-1.11,4.34.36.67,1.25,1.09,2.41,2.73,1.93,1.2-.35,1.67-.76,1.67-1.47-.32-4.15-7.85-5.77-10.68-4.15a19.93,19.93,0,0,0-10.27,16.45,12.53,12.53,0,0,0,0,2.21c-1.6,2-2.71,3.69-5.27,4.81-1.14.47-1.61.29-1.94-.7-1-2.92.86-6.87,3.27-17,.4-1.75-.27-3.22-2.13-4.86-4.08-3.23-11.43,1.64-14.42,5.57l.67-3.28c.4-1.53-.07-2.17-1.87-2.58A2.4,2.4,0,0,0,115,118s-3.15,14.6-3.22,14.91a19.59,19.59,0,0,1-3.12,3.77c-.93,1.05-2.87,2.4-4,2-.73-.24-.87-1.58-.93-2.7-.14-2.92,1.46-6.32,1.93-8.48.33-1.64-.07-2.23-1.93-2.64a2.36,2.36,0,0,0-3.21,1.76c-1.2,3.51-2.47,7.31-5.07,10.59-1,1.17-1.53,1.88-2.4,2.17-.67.29-.47.29-1.2-.53-1.67-1.74-2-11,3.73-18.09,2.81-3.33,4-3.63,5.81-1.63.67.64.47,1.46.53,2.16.07,1,1.34,1.76,2.74,1.64,4-.35,1.52-6.63-4.47-7.84h.07a6.92,6.92,0,0,0-5.48.93,18.31,18.31,0,0,0-6.27,7.09c-2.2,4.39-3.74,8.25-2.93,13a7.41,7.41,0,0,0,5.73,6.2,7.59,7.59,0,0,0,8-2.63h-.06l.6-.59c1.52,3,6.76,4.21,10.83.75a3,3,0,0,0,2.11,1.42h.07a2.09,2.09,0,0,0,2.8-1.76c2.13-5.67,4-11.18,7.94-15.68,2-2.34,3.8-4.28,6.4-5.15.94-.41,1.14-.3.81,1.17-2.17,9.94-4.89,14.74-3,19,1,2.52,5.68,4.22,8.54,3.16a14.87,14.87,0,0,0,5.69-3.7,10.25,10.25,0,0,0,6,.78,14.9,14.9,0,0,0,4.61-1.94c-.07,1.23-.2,2.46-1.07,3-2.94,1.93-6.74,3.57-8.94,5.68s-4.56,6.85-4.56,9.84a6,6,0,0,0,0,1.05c.14,2.93,5.74,6,9.28,5.15a8.34,8.34,0,0,0,6.54-6c1.07-3,2-9,2.55-12.59a2.34,2.34,0,0,1,1.6-2.28c2.38-1.33,4.83-2.58,6.92-4,1.8,6.41,13.91,8.46,22.74.88a7.81,7.81,0,0,0,13.24,1.8h-.06l.6-.59c1.67,3.28,7.21,3.87,10.54,1a21,21,0,0,0,4.74-5.56C217.32,133.58,217.26,133.05,216.39,132ZM171,127a21.78,21.78,0,0,1,3-6.09,11.65,11.65,0,0,1,3.27-3c1.13-.64,1.26-.7,1.73-.41a2.6,2.6,0,0,1,.34,1.76c-.57,3.6-4.2,7-7.74,7.67-.47.11-.67.17-.67.23S171,127.14,171,127Zm-23.56,30.91c-1.2,1.29-1.6,1.41-2.47,1.06a3.27,3.27,0,0,1-2.14-3.05c.7-5.51,5.78-10.06,8.49-11.48C150.57,147.82,149.88,155.45,147.45,157.94Z"/>
        </g>
      </g>
    </g>
    <g>
      <path class="cls-5" d="M30.41,158.6H27.63a.23.23,0,0,1-.23-.23v-5.81L27,152.3v-.19a.22.22,0,0,1,.23-.23h3a1.67,1.67,0,0,1,1.45,1.79,2.1,2.1,0,0,1-.3,1.14,2.09,2.09,0,0,1,.88,1.72A1.9,1.9,0,0,1,30.41,158.6ZM30,152.84H28.36v1.69H30c.38,0,.77-.07.77-.81A.79.79,0,0,0,30,152.84Zm1.37,3.71c0-.67-.36-1-1.1-1.07h-.3l-.26,0v0H28.36v2.19H30v0l.23,0A1,1,0,0,0,31.32,156.55Z"/>
      <path class="cls-5" d="M37.32,156.2a2.39,2.39,0,0,1,2.27-2.51,2.23,2.23,0,0,1,2.21,2,4.23,4.23,0,0,1,0,.64.24.24,0,0,1-.21.19H38.25a1.41,1.41,0,0,0,1.32,1.23,1.94,1.94,0,0,0,1.29-.53.22.22,0,0,1,.18-.08.17.17,0,0,1,.15.07l.32.4a.25.25,0,0,1,.05.15.23.23,0,0,1,0,.14,2.47,2.47,0,0,1-2,.83A2.43,2.43,0,0,1,37.32,156.2Zm3.56-.6a1.3,1.3,0,0,0-1.31-1,1.36,1.36,0,0,0-1.25,1Z"/>
      <path class="cls-5" d="M50.94,158.19v.19a.23.23,0,0,1-.23.23h-.87a.23.23,0,0,1-.23-.23v-.29a2,2,0,0,1-1.38.57,1.41,1.41,0,0,1-1.5-1.44c0-1.07.77-1.61,2.22-1.61.21,0,.43,0,.66,0a1,1,0,0,0-1-1.06,1.8,1.8,0,0,0-.9.26l-.34.55h-.19a.23.23,0,0,1-.25-.23h0l0-.7h0a.26.26,0,0,1,.09-.22,2.27,2.27,0,0,1,1.64-.64,1.82,1.82,0,0,1,2,2v2.26Zm-1.35-1.67a2.23,2.23,0,0,0-.56-.06c-.6,0-1.33.18-1.33.76a.55.55,0,0,0,.62.55A1.4,1.4,0,0,0,49.59,156.52Z"/>
      <path class="cls-5" d="M55.69,156.2a2.53,2.53,0,0,1,3.91-2.1l.07-.08a.25.25,0,0,1,.18-.08A.24.24,0,0,1,60,154h0l.13.12,0,.83h0a.23.23,0,0,1-.23.23H59.5a.18.18,0,0,1-.16-.08,1.57,1.57,0,1,0-1.13,2.68,1.58,1.58,0,0,0,1.23-.57.23.23,0,0,1,.18-.09.24.24,0,0,1,.13,0l.4.32a.26.26,0,0,1,.09.19.24.24,0,0,1-.06.14,2.58,2.58,0,0,1-2,.9A2.51,2.51,0,0,1,55.69,156.2Z"/>
      <path class="cls-5" d="M70.1,158.19v.19a.23.23,0,0,1-.23.23H69a.23.23,0,0,1-.23-.23v-2.64a1.14,1.14,0,0,0-1.15-1.15,1.18,1.18,0,0,0-1.2,1.15v2.64a.22.22,0,0,1-.23.23h-.51a.23.23,0,0,1-.23-.23v-5.81l-.36-.27v-.19a.23.23,0,0,1,.24-.23h.86a.22.22,0,0,1,.23.23v2a1.77,1.77,0,0,1,1.2-.47,2.12,2.12,0,0,1,2.12,2v2.25Z"/>
      <path class="cls-5" d="M86.74,158.31a.16.16,0,0,1,0,.1.2.2,0,0,1-.22.2H86a.26.26,0,0,1-.24-.17h0l-1.11-2.38s0,0,0,0H83v2.36a.23.23,0,0,1-.23.23h-.51a.23.23,0,0,1-.23-.23v-5.81l-.36-.27v-.19a.22.22,0,0,1,.23-.23h2.86A2.05,2.05,0,0,1,86.79,154a2.08,2.08,0,0,1-1.2,1.88Zm-.9-4.35a1.1,1.1,0,0,0-1.1-1.12H83v2.24h1.76A1.09,1.09,0,0,0,85.84,154Z"/>
      <path class="cls-5" d="M91.68,156.2A2.39,2.39,0,0,1,94,153.69a2.23,2.23,0,0,1,2.21,2,4.23,4.23,0,0,1,0,.64.24.24,0,0,1-.21.19H92.61a1.4,1.4,0,0,0,1.32,1.23,1.94,1.94,0,0,0,1.29-.53.21.21,0,0,1,.18-.08.18.18,0,0,1,.15.07l.32.4a.25.25,0,0,1,0,.15.23.23,0,0,1,0,.14,2.47,2.47,0,0,1-1.95.83A2.43,2.43,0,0,1,91.68,156.2Zm3.56-.6a1.31,1.31,0,0,0-1.31-1,1.36,1.36,0,0,0-1.25,1Z"/>
      <path class="cls-5" d="M101.2,158.3a.29.29,0,0,1-.14-.24l0-.72h0a.18.18,0,0,1,.17-.18h0l.2,0,.32.5a2.4,2.4,0,0,0,.94.28c.74,0,1.15-.25,1.15-.65s-.62-.56-1.17-.75-1.59-.59-1.59-1.49.69-1.35,1.77-1.35a2.91,2.91,0,0,1,1.44.39.39.39,0,0,1,.12.24V155a.2.2,0,0,1-.17.21H104l-.32-.47h0a2.15,2.15,0,0,0-1-.21c-.43,0-.67.2-.67.47s.31.43,1,.68c.51.19,1.72.43,1.72,1.57,0,.94-.83,1.53-2.11,1.53A2.75,2.75,0,0,1,101.2,158.3Z"/>
      <path class="cls-5" d="M109.54,156.2a2.52,2.52,0,1,1,2.52,2.52A2.5,2.5,0,0,1,109.54,156.2Zm4.08,0a1.56,1.56,0,1,0-1.56,1.58A1.57,1.57,0,0,0,113.62,156.2Z"/>
      <path class="cls-5" d="M122.55,153.91v.46a.24.24,0,0,1-.26.23l-.24,0a1.33,1.33,0,0,0-1.2,1.16v2.64a.24.24,0,0,1-.23.23h-.51a.23.23,0,0,1-.23-.23v-4l-.36-.27V154a.22.22,0,0,1,.23-.23h.87a.23.23,0,0,1,.23.23v.18a1.7,1.7,0,0,1,1.2-.47,1.12,1.12,0,0,1,.31,0A.22.22,0,0,1,122.55,153.91Zm-2.62.53h0Z"/>
      <path class="cls-5" d="M130.85,158v.51c0,.11-.08.19-.21.23a1.31,1.31,0,0,1-.41.06,2,2,0,0,1-1.86-2.16v-1.93h-.79a.23.23,0,0,1-.23-.23v-.49a.22.22,0,0,1,.23-.23h.79v-1.58a.23.23,0,0,1,.23-.23h.51a.23.23,0,0,1,.23.23v1.58h1a.22.22,0,0,1,.23.23v.49a.23.23,0,0,1-.23.23h-1v1.85c0,.78.39,1.27.94,1.27a1.11,1.11,0,0,0,.3-.05A.22.22,0,0,1,130.85,158Z"/>
    </g>
  </g>
</svg>
