<svg id="Calque_1" data-name="Calque 1" xmlns="http://www.w3.org/2000/svg" xmlns:xlink="http://www.w3.org/1999/xlink" viewBox="0 0 230 174">
  <defs>
    <style>
      .cls-1 {
        fill: #70b52c;
      }

      .cls-2 {
        fill: #6fb643;
      }

      .cls-3 {
        fill: url(#Dégradé_sans_nom_14);
      }

      .cls-4 {
        fill: url(#Dégradé_sans_nom_24);
      }

      .cls-5 {
        fill: #fff;
      }
    </style>
    <linearGradient id="Dégradé_sans_nom_14" data-name="Dégradé sans nom 14" x1="115.75" y1="74.96" x2="115.26" y2="36.42" gradientUnits="userSpaceOnUse">
      <stop offset="0" stop-color="#f49e56"/>
      <stop offset="0.3" stop-color="#f4a959"/>
      <stop offset="0.83" stop-color="#f6c862"/>
      <stop offset="1" stop-color="#f6d365"/>
    </linearGradient>
    <linearGradient id="Dégradé_sans_nom_24" data-name="Dégradé sans nom 24" x1="65.31" y1="122.67" x2="126.27" y2="81.66" gradientUnits="userSpaceOnUse">
      <stop offset="0" stop-color="#e73c68"/>
      <stop offset="0.33" stop-color="#f07d5a"/>
      <stop offset="0.64" stop-color="#f8b44d"/>
      <stop offset="0.87" stop-color="#fdd546"/>
      <stop offset="1" stop-color="#ffe243"/>
    </linearGradient>
  </defs>
  <title>190825-logo</title>
  <g id="_Groupe_" data-name="&lt;Groupe&gt;">
    <g id="_Groupe_2" data-name="&lt;Groupe&gt;">
      <g id="_Groupe_3" data-name="&lt;Groupe&gt;">
        <g id="_Groupe_4" data-name="&lt;Groupe&gt;">
          <path id="_Tracé_" data-name="&lt;Tracé&gt;" class="cls-1" d="M185.36,23.89s-8.29,35.47-27.64,21.84c1-2,4.16-4.73,7.5-6.68-3.77.21-7.32,3-8.88,4.47C149.67,21.74,185.36,23.89,185.36,23.89Z"/>
          <path id="_Tracé_2" data-name="&lt;Tracé&gt;" class="cls-2" d="M148.66,33.73c-.94-1-1.76-3.38-2.15-5.66-.7,2.22.19,4.91.67,6.08C135,32.55,144.27,16,144.27,16S158.7,27.66,148.66,33.73Z"/>
        </g>
      </g>
      <g id="_Groupe_5" data-name="&lt;Groupe&gt;">
        <path id="_Tracé_3" data-name="&lt;Tracé&gt;" class="cls-3" d="M162,59c-10.53,4.19-12.48,14.9-27.58,14.9-18.78,0-23.93-16.55-37.34-16.55-10.9,0-16.93,10.91-27.79,15A49.69,49.69,0,0,1,162,59Z"/>
        <g id="_Groupe_6" data-name="&lt;Groupe&gt;">
          <g id="_Groupe_7" data-name="&lt;Groupe&gt;">
            <path id="_Tracé_4" data-name="&lt;Tracé&gt;" class="cls-4" d="M161.94,105.29c-9.4-4.47-15.39-13.07-25.42-13.07-13.42,0-18.42,15.69-37.2,15.69-16.17,0-17.26-12.28-30-15.68a50.07,50.07,0,0,1-.08-19.85c10.87-4.1,16.9-15,27.8-15,13.41,0,18.56,16.55,37.34,16.55,15.1,0,17.05-10.71,27.58-14.9A49.68,49.68,0,0,1,161.94,105.29Z"/>
          </g>
        </g>
      </g>
      <g id="_Groupe_8" data-name="&lt;Groupe&gt;">
        <g id="_Groupe_9" data-name="&lt;Groupe&gt;">
          <path id="_Tracé_transparent_" data-name="&lt;Tracé transparent&gt;" class="cls-5" d="M55.75,106.48a7.78,7.78,0,0,0-2.87.06c0-.12-.07-.24-.07-.35-1-4.45-6.2-7-11.87-6a21.77,21.77,0,0,0-11,5c-9,8.29-10.68,20.82-6.28,28.68,1.67,3.28,3.81,5.39,7.68,7.56,11.42,6,25.54-1.12,30-13.12,2.6-6.84,2.4-13.11-.6-18A8.41,8.41,0,0,0,55.75,106.48ZM58,120.06c-1.53,9.31-5.6,15.63-12.28,18.73-6.08,2.72-12.18,1.91-16.08-4-1.64-2.4-3.57-5.54-2.33-13.7.4-2.45,1.06-5.79,4.8-11.06,2.47-3.57,6.07-5.74,11.08-6.79a4.73,4.73,0,0,1,3.67.41c.33.23.6.76.87,2a5.3,5.3,0,0,1-.61,2.87c-.53,1.29-.33,1.75,1.07,2.4a3.57,3.57,0,0,0,3.61-.65,4.45,4.45,0,0,0,1.13-2.22,6.31,6.31,0,0,1,1.27.64C55.42,109.52,58.75,115.2,58,120.06Z"/>
          <path id="_Tracé_5" data-name="&lt;Tracé&gt;" class="cls-5" d="M83.71,117.43c1.13-.18,2.47-.76,2.53-1.17.13-1.16-2.34-2.05-4.87-1.59-4.16.75-6.08,3.17-7.61,4.51a1.22,1.22,0,0,0,.07-.47c0-.58.59-2.32-2.34-2.69h.07c-2.67-.47-2.4,1.23-2.53,1.87-1.22,5-4.36,21.35-4.41,21.6-.33,1.88.07,2.64,1.8,2.76h-.06c1.86.23,3.53-.59,3.67-1.82a39.2,39.2,0,0,1,.93-5.68c.6-2.46.8-4.27,1.8-6.38,2.41-5.15,5.27-9.6,11.08-10.94Z"/>
          <path id="_Tracé_transparent_2" data-name="&lt;Tracé transparent&gt;" class="cls-5" d="M213.89,132h-.07c-.73-.76-2.07-.41-3.07,1.11-1.23,1.87-4.85,6.26-6.94,5.51-.73-.24-.86-1.58-.93-2.7-.14-2.92,1.47-6.32,1.93-8.48.34-1.64-.06-2.23-1.93-2.64a2.35,2.35,0,0,0-3.2,1.76c-1.21,3.51-2.47,7.31-5.08,10.59-1,1.17-1.53,1.88-2.4,2.17-.67.29-.47.29-1.2-.53-1.67-1.74-1.95-11,3.74-18.09,2.8-3.33,4-3.63,5.8-1.63.67.64.47,1.46.54,2.16.06,1,1.33,1.76,2.73,1.64,4-.35,1.52-6.63-4.47-7.84h.07a6.89,6.89,0,0,0-5.47.93,18.34,18.34,0,0,0-6.28,7.09c-1.64,3.28-2.92,6.27-3.12,9.58v0c-2.87,3.21-4,4.21-7,5.73-10.62,5.46-10.76-5.17-9.74-8.31.2-.53,1.67-.18,3.14-.35,6.4-.7,11.47-6.32,10.34-11.42-.73-3.27-5.41-5-8.74-3.27a15.27,15.27,0,0,0-4.07,2.92c-3.47,4.1-5.27,7.38-6.21,12.65a11.55,11.55,0,0,0-.18,1.86,30.4,30.4,0,0,1-6.89,4.63.18.18,0,0,0,.07-.17c1-6.32,1-5,2-10.71.27-1.17-.2-1.76-1.8-2.23a2.55,2.55,0,0,0-2.94,1.17c-1.89,3-3.87,10.48-8,10.95-1,.12-1.4-.12-1.73-.76-.6-1.17-.54-3.4.2-6,1.07-4,2.47-8.43,6.54-10.66,2.27-1.23,3-1.11,4.33.36.68,1.25,1.1,2.41,2.74,1.93,1.2-.35,1.67-.76,1.67-1.47-.32-4.15-7.85-5.77-10.68-4.15a19.93,19.93,0,0,0-10.27,16.45,12.53,12.53,0,0,0,0,2.21c-1.6,2-2.71,3.69-5.27,4.81-1.14.47-1.61.29-1.94-.7-1-2.92.86-6.87,3.27-17,.4-1.75-.27-3.22-2.13-4.86-4.08-3.23-11.43,1.64-14.42,5.57l.67-3.28c.4-1.53-.07-2.17-1.87-2.58a2.4,2.4,0,0,0-3.07,1.93s-3.15,14.6-3.22,14.91a19.59,19.59,0,0,1-3.12,3.77c-.93,1.05-2.87,2.4-4,2-.73-.24-.87-1.58-.93-2.7-.14-2.92,1.46-6.32,1.93-8.48.33-1.64-.07-2.23-1.93-2.64a2.36,2.36,0,0,0-3.21,1.76c-1.2,3.51-2.47,7.31-5.07,10.59-1,1.17-1.53,1.88-2.4,2.17-.67.29-.47.29-1.2-.53-1.67-1.74-2-11,3.73-18.09,2.81-3.33,4-3.63,5.81-1.63.67.64.47,1.46.53,2.16.07,1,1.34,1.76,2.74,1.64,4-.35,1.52-6.63-4.47-7.84h.07a6.92,6.92,0,0,0-5.48.93A18.31,18.31,0,0,0,86,123.05c-2.2,4.39-3.74,8.25-2.93,13a7.41,7.41,0,0,0,5.73,6.2,7.59,7.59,0,0,0,8-2.63h-.06l.6-.59c1.52,3,6.76,4.21,10.83.75a3,3,0,0,0,2.11,1.42h.07a2.09,2.09,0,0,0,2.8-1.76c2.13-5.67,4-11.18,7.94-15.68,2-2.34,3.8-4.28,6.4-5.15.94-.41,1.14-.3.81,1.17-2.17,9.94-4.89,14.74-3,19,1,2.52,5.68,4.22,8.54,3.16a14.87,14.87,0,0,0,5.69-3.7,10.25,10.25,0,0,0,6,.78,14.9,14.9,0,0,0,4.61-1.94c-.07,1.23-.2,2.46-1.07,3-2.94,1.93-6.74,3.57-8.94,5.68s-4.56,6.85-4.56,9.84a6,6,0,0,0,0,1.05c.14,2.93,5.74,6,9.28,5.15a8.34,8.34,0,0,0,6.54-6c1.07-3,2-9,2.55-12.59a2.34,2.34,0,0,1,1.6-2.28c2.38-1.33,4.83-2.58,6.92-4,1.8,6.41,13.91,8.46,22.74.88a7.81,7.81,0,0,0,13.24,1.8h-.06l.6-.59c1.67,3.28,7.21,3.87,10.54,1a21,21,0,0,0,4.74-5.56C214.82,133.58,214.76,133.05,213.89,132Zm-45.38-5a21.52,21.52,0,0,1,3-6.09,11.65,11.65,0,0,1,3.27-3c1.13-.64,1.26-.7,1.73-.41a2.6,2.6,0,0,1,.34,1.76c-.57,3.6-4.2,7-7.75,7.67-.46.11-.66.17-.66.23S168.51,127.14,168.51,127ZM145,157.94c-1.2,1.29-1.6,1.41-2.47,1.06a3.27,3.27,0,0,1-2.14-3.05c.7-5.51,5.78-10.06,8.49-11.48C148.07,147.82,147.38,155.45,145,157.94Z"/>
        </g>
      </g>
    </g>
    <g>
      <path class="cls-5" d="M35.06,148.42a.36.36,0,0,1,.1.26v.3l-.89.68,0,0-2.7,9.06a.36.36,0,0,1-.38.26H30a.39.39,0,0,1-.39-.26l-2.69-9.06,0,0L26,149v-.3a.33.33,0,0,1,.11-.27.37.37,0,0,1,.25-.1h1.51a.37.37,0,0,1,.37.26l2.32,7.78,2.34-7.78a.35.35,0,0,1,.36-.26h1.51A.37.37,0,0,1,35.06,148.42Z"/>
      <path class="cls-5" d="M48.11,158.35v.29a.4.4,0,0,1-.1.26.37.37,0,0,1-.27.11H46.36a.36.36,0,0,1-.26-.11.33.33,0,0,1-.11-.26v-6.29l-.56-.44v-.29a.33.33,0,0,1,.1-.26.35.35,0,0,1,.26-.1h1.37a.33.33,0,0,1,.27.1.36.36,0,0,1,.1.26v6.29Zm-2.22-8.43a1,1,0,0,1-.3-.71.92.92,0,0,1,.3-.69.94.94,0,0,1,.69-.29,1,1,0,0,1,.71.29.92.92,0,0,1,.3.69,1,1,0,0,1-.3.71,1,1,0,0,1-1.4,0Z"/>
      <path class="cls-5" d="M61.36,158.34v.3a.39.39,0,0,1-.09.26A.37.37,0,0,1,61,159H59.62a.38.38,0,0,1-.37-.37v-9.22l-.56-.44v-.3a.36.36,0,0,1,.1-.27.42.42,0,0,1,.26-.1h1.37a.37.37,0,0,1,.27.11.33.33,0,0,1,.1.26v9.21Z"/>
      <path class="cls-5" d="M74.85,158.34v.3a.35.35,0,0,1-.1.26.34.34,0,0,1-.27.11H73.1a.34.34,0,0,1-.25-.11.33.33,0,0,1-.11-.26v-9.22l-.57-.44v-.3a.37.37,0,0,1,.11-.27.4.4,0,0,1,.26-.1H73.9a.38.38,0,0,1,.28.11.36.36,0,0,1,.1.26v9.21Z"/>
      <path class="cls-5" d="M92.49,158.34v.3a.33.33,0,0,1-.11.26.34.34,0,0,1-.25.11H90.74a.38.38,0,0,1-.37-.37v-.46a3.37,3.37,0,0,1-1,.69,3.1,3.1,0,0,1-1.15.23,2.48,2.48,0,0,1-1.18-.28,2.13,2.13,0,0,1-.87-.79,2.4,2.4,0,0,1-.32-1.23,2.2,2.2,0,0,1,.89-1.91,4.44,4.44,0,0,1,2.62-.65q.33,0,1.05.06a1.8,1.8,0,0,0-.45-1.25,1.61,1.61,0,0,0-1.19-.42,2.81,2.81,0,0,0-.79.12,2,2,0,0,0-.64.29l-.55.87h-.3a.41.41,0,0,1-.29-.1.34.34,0,0,1-.11-.25v0L86,152.46v0a.39.39,0,0,1,.14-.33,2.87,2.87,0,0,1,1.14-.75,4.09,4.09,0,0,1,1.48-.27,3.18,3.18,0,0,1,2.35.81,3.44,3.44,0,0,1,.83,2.42v3.57Zm-3.33-.89a2.23,2.23,0,0,0,.74-.67,2.61,2.61,0,0,0,.44-1.09,4.19,4.19,0,0,0-.88-.1,3.6,3.6,0,0,0-1.49.29,1,1,0,0,0-.62.92.8.8,0,0,0,.27.65,1,1,0,0,0,.7.23A1.72,1.72,0,0,0,89.16,157.45Z"/>
      <path class="cls-5" d="M109.88,152.49v6.91a1.09,1.09,0,0,1,0,.22.91.91,0,0,1,0,.21v0a3.08,3.08,0,0,1-.52,1.53,3.38,3.38,0,0,1-1.22,1.09,3.45,3.45,0,0,1-1.66.4,3.38,3.38,0,0,1-1.51-.34,3.5,3.5,0,0,1-1.21-.95.39.39,0,0,1-.09-.26.34.34,0,0,1,.17-.29l.71-.47a.29.29,0,0,1,.17,0,.31.31,0,0,1,.28.13,1.82,1.82,0,0,0,2.41.52,1.87,1.87,0,0,0,.68-.66,1.63,1.63,0,0,0,.25-.88,1.48,1.48,0,0,0,0-.23h0v-.93a3.37,3.37,0,0,1-1,.61,3,3,0,0,1-1.15.22,3.25,3.25,0,0,1-1.78-.53,3.76,3.76,0,0,1-1.3-1.46,4.45,4.45,0,0,1,0-4,3.82,3.82,0,0,1,1.29-1.46,3.17,3.17,0,0,1,1.79-.54,3.21,3.21,0,0,1,1.15.21,3.17,3.17,0,0,1,1,.61v-.35a.38.38,0,0,1,.37-.37h1.38a.36.36,0,0,1,.26.11.33.33,0,0,1,.11.26v.3Zm-2.62,5a2.29,2.29,0,0,0,.79-.92,2.64,2.64,0,0,0,.29-1.25,2.71,2.71,0,0,0-.29-1.26,2.36,2.36,0,0,0-.79-.92,1.84,1.84,0,0,0-1.08-.34,1.79,1.79,0,0,0-1.07.34,2.44,2.44,0,0,0-.79.92,2.84,2.84,0,0,0-.29,1.26,2.77,2.77,0,0,0,.29,1.25,2.37,2.37,0,0,0,.79.92,1.85,1.85,0,0,0,1.07.33A1.91,1.91,0,0,0,107.26,157.47Z"/>
      <path class="cls-5" d="M122.68,158.7a3.88,3.88,0,0,1-1.31-1.49,4.36,4.36,0,0,1-.48-2,4.26,4.26,0,0,1,.48-2,3.83,3.83,0,0,1,1.31-1.45,3.23,3.23,0,0,1,1.81-.54,3.39,3.39,0,0,1,1.68.43,3.45,3.45,0,0,1,1.26,1.17,3.39,3.39,0,0,1,.56,1.64,5.36,5.36,0,0,1,0,.57c0,.22,0,.37,0,.45a.41.41,0,0,1-.13.2.32.32,0,0,1-.21.09h-5.24a2.49,2.49,0,0,0,.75,1.4,1.9,1.9,0,0,0,1.34.56,3,3,0,0,0,2.05-.86.36.36,0,0,1,.29-.12.27.27,0,0,1,.23.11l.51.64a.4.4,0,0,1,.07.24.38.38,0,0,1-.06.22,3.11,3.11,0,0,1-1.31,1,4.38,4.38,0,0,1-1.78.35A3.12,3.12,0,0,1,122.68,158.7Zm3.86-4.47a2,2,0,0,0-.75-1.12,2.17,2.17,0,0,0-1.33-.42,1.9,1.9,0,0,0-1.19.42,2.43,2.43,0,0,0-.8,1.12Z"/>
    </g>
  </g>
</svg>
