<svg id="Calque_1" data-name="Calque 1" xmlns="http://www.w3.org/2000/svg" viewBox="0 0 488 145">
  <defs>
    <style>
      .cls-1 {
        fill: #fff;
      }
    </style>
  </defs>
  <title>190825-tongasoa</title>
  <g>
    <path class="cls-1" d="M100.69,36.58c-1.26,0-3.46,0-6.6-.08s-6.76-.2-10.87-.43l-.51,1c-.23.23-.35.4-.35.51s-.17.12-.17.34a2.66,2.66,0,0,0-.43.52,1.23,1.23,0,0,1-.25.34q-2.91,3.94-6.94,9.59T65.93,60.47q-4.64,6.42-9.25,13.19T48,86.5q-4,6.07-7.1,11a58.76,58.76,0,0,0-4.29,7.88c-.57,1.48-1,2.85-1.37,4.11a16.83,16.83,0,0,0-.34,3.34,3,3,0,0,0,1,2.48,2.35,2.35,0,0,1,1.54.17c.91.46,1.14,1.31.69,2.57a3.48,3.48,0,0,1-2.15,1.8,6.91,6.91,0,0,1-3.59.26,9.16,9.16,0,0,1-3.85-1.72,8.59,8.59,0,0,1-2.91-4.28,12.85,12.85,0,0,1-.09-6.5,48.07,48.07,0,0,1,2.57-8.48,99.18,99.18,0,0,1,4.36-9.42q2.58-4.87,5.14-9.33t4.88-8c1.54-2.4,2.77-4.33,3.68-5.82q1.71-2.73,4.63-7.11t6.16-9q3.25-4.64,6.17-8.74t4.45-6.16q-9.42-.35-18.15-.43t-13.7.26q9.75,9.93,7.7,15.58a7.08,7.08,0,0,1-2.05,2.91,2.1,2.1,0,0,1-2.31,0q-1.29-.69-3.17-4.62a34.79,34.79,0,0,0-3-4.88,41.21,41.21,0,0,0-4.19-4.88v-.18a10.94,10.94,0,0,1-2.57-3.59,12.81,12.81,0,0,1-.86-3.08,6.17,6.17,0,0,1,.35-2.91,7.48,7.48,0,0,1,1.19-1.89l.18-.17a7.63,7.63,0,0,1,1.88-1.2A14,14,0,0,1,30.31,26l1.54-.52a90.63,90.63,0,0,1,16-1.54q10.88-.33,24.74-.34a1.55,1.55,0,0,1-.17-.68,1.57,1.57,0,0,1,.17-1.2,5.94,5.94,0,0,1,.77-.94A3.89,3.89,0,0,1,74.83,20a3.73,3.73,0,0,0,.77-.08,1.18,1.18,0,0,1,.77.08,6.39,6.39,0,0,1,3.25,1,13.47,13.47,0,0,1,3.09,2.57h6.85q10.09.18,20.54,0t19.18-.94a125.4,125.4,0,0,0,14.81-2.06c4-.85,6.54-2,7.45-3.34a8.42,8.42,0,0,1,.17-1.88,1.91,1.91,0,0,1,2.06-1.71c.68,0,1.28.51,1.8,1.54a8.63,8.63,0,0,1,.77,3.85,14.36,14.36,0,0,1-.94,4.88,12.47,12.47,0,0,1-3.34,4.8q-5,4.27-18,5.91A321.88,321.88,0,0,1,100.69,36.58Z"/>
    <path class="cls-1" d="M103.08,87.27a.32.32,0,0,1-.25-.09.4.4,0,0,0-.26-.08,2.46,2.46,0,0,1-1-.17A51.36,51.36,0,0,1,99,91.81a33.88,33.88,0,0,1-3.25,4.36q-4.45,5.65-8.48,7.88a33.48,33.48,0,0,1-7.1,3.08,4.34,4.34,0,0,1-1.37.43,10.67,10.67,0,0,0-1.37.26,14.71,14.71,0,0,1-6.08.08,12.11,12.11,0,0,1-4.54-2,15,15,0,0,1-3.17-3.08,17.41,17.41,0,0,1-2-3.25A15.8,15.8,0,0,1,60.36,93a24.1,24.1,0,0,1,1.46-7.28,32.94,32.94,0,0,1,3.59-7.36,64.25,64.25,0,0,1,6-8.05l.35-.35.51-.51a6.1,6.1,0,0,0,.6-.68,4.61,4.61,0,0,1,.94-.86,44.42,44.42,0,0,1,10-7.11A35.43,35.43,0,0,1,97.6,56.62a11.62,11.62,0,0,1,3.94.68,8.07,8.07,0,0,1,2.91,1.8A7,7,0,0,1,106.34,63v1.62a4,4,0,0,1-.35,1.29,5.15,5.15,0,0,1-.34.59c-.11.18-.23.38-.34.6h-.17a1,1,0,0,1-.69.69,3.3,3.3,0,0,1-1,.17c-.69,0-1-.46-1-1.37a.62.62,0,0,0,0-.86q-.34-2.06-3.6-1.54a28.48,28.48,0,0,0-4.88,2.14,37.5,37.5,0,0,0-8.3,6.42,19.7,19.7,0,0,0-1.54,1.72l-1.37,1.71a2.09,2.09,0,0,0-1,1c-.69.91-1.37,1.79-2.06,2.65A21.81,21.81,0,0,0,77.57,83,46.07,46.07,0,0,0,73.37,91a27.12,27.12,0,0,0-1.62,7c.11,2.17.71,3.57,1.8,4.19a5.31,5.31,0,0,0,3.93.43,15.35,15.35,0,0,0,4.88-2.14A42.87,42.87,0,0,0,87,97.2c1.14-1.14,1.91-1.88,2.31-2.23a24.8,24.8,0,0,0,2-2,18.86,18.86,0,0,0,3.25-5,3.32,3.32,0,0,0,.17-2.75,21.82,21.82,0,0,0-1.28-2.48,14.26,14.26,0,0,1-1.29-2.82A6.1,6.1,0,0,1,92.47,76c.34-.8.65-1.51.94-2.14a5.35,5.35,0,0,1,1.11-1.63A9.61,9.61,0,0,1,98,69.38a12,12,0,0,1,3.17-.95,1.19,1.19,0,0,1,.86-.34h.51a1.45,1.45,0,0,1,1,.34,2.57,2.57,0,0,1,1.54,1.2,3.64,3.64,0,0,1,.34,1.89,19.86,19.86,0,0,1-.26,3.08c-.17,1.14-.34,2.25-.51,3.34s-.32,2-.43,2.65A13.72,13.72,0,0,0,104,82a6.28,6.28,0,0,1-.42,1.54,1,1,0,0,0,.68-.17,20.31,20.31,0,0,0,4.28-1.28c1.14-.52,2-.89,2.57-1.12,1.26-.57,2.2-1,2.83-1.19s.94.11.94,1a1.86,1.86,0,0,0-.17.86V82a4.8,4.8,0,0,1-.6,2.06,5.67,5.67,0,0,1-2.48,2.22,11.57,11.57,0,0,1-3.34,1.12A15,15,0,0,1,103.08,87.27Z"/>
    <path class="cls-1" d="M166.44,82.65a13.53,13.53,0,0,1,2.39-2.23,1.56,1.56,0,0,1,1.63-.09c.52.29.66,1.23.43,2.83a4.35,4.35,0,0,1-.34,1.54c-.23.57-.55,1.26-.94,2.06a10.54,10.54,0,0,1-2,2.56q-1.38,1.55-3.6,3.86c-1.48,1.54-3,3-4.45,4.53l-4,4c-1.19,1.2-2,2-2.31,2.31a9.88,9.88,0,0,1-6,2.74,9.13,9.13,0,0,1-5.82-1.71,16,16,0,0,1-4.63-5.14q-2.22-3.6-1.19-9.07l1.62-4.54a24.43,24.43,0,0,1,2.49-5c.79-1.26,1.62-2.54,2.48-3.86s1.74-2.59,2.65-3.85c.23-.34.52-.74.86-1.2a7.54,7.54,0,0,0,.85-1.45,3.38,3.38,0,0,0,.35-1.29c0-.34-.29-.57-.86-.68s-2.17.68-4.45,2.39-4.88,3.8-7.79,6.26-5.88,5.08-8.91,7.87-5.56,5.22-7.62,7.28a28,28,0,0,0-1,2.91,18,18,0,0,0-.69,3.08,4.71,4.71,0,0,0,.69,2.91h1.19c1.14.23,1.49,1,1,2.23a.5.5,0,0,1-.17.34.15.15,0,0,1-.17.17.67.67,0,0,1-.51.69,8.24,8.24,0,0,1-1,.68,4.87,4.87,0,0,1-2.74,1,7.92,7.92,0,0,1-3.77-.51h-.17a.5.5,0,0,1-.34-.17c-.91-.35-1.37-.63-1.37-.86-2.4-1.71-3.48-4.22-3.26-7.54a18.53,18.53,0,0,1,.86-5.13,1.47,1.47,0,0,0,.17-.69c.12,0,.17-.11.17-.34a54.63,54.63,0,0,1,4.63-10.7q3.08-5.56,6.33-10.53c.57-.91,1.09-1.83,1.54-2.74a18.14,18.14,0,0,0,1-2.4h0V63.13a2.46,2.46,0,0,1-.17-1,2.5,2.5,0,0,1,.51-1.54,2.94,2.94,0,0,1,1.2-.94,5.9,5.9,0,0,1,2.57-.43,2.13,2.13,0,0,1,.6.08,1.8,1.8,0,0,0,.6.09A12.59,12.59,0,0,1,128.17,61a14.31,14.31,0,0,1,2.91,2.65,8.24,8.24,0,0,1,1.71,3.42,6.43,6.43,0,0,1-.43,3.94,9.14,9.14,0,0,0-.6,1l-.6,1.2c-.23.34-.48.71-.77,1.11s-.66.89-1.11,1.46v-.17a10.79,10.79,0,0,1-1,1.37q3.6-3.25,7.45-6.34t7.45-5.57a41.05,41.05,0,0,1,6.76-3.85,11.86,11.86,0,0,1,5.4-1.2h.17c2.51.35,4.25,1.17,5.22,2.49A7.1,7.1,0,0,1,162,67.32a16.53,16.53,0,0,1-1.89,6.25,44.56,44.56,0,0,1-4.28,6.85,2.55,2.55,0,0,0-.51.69,2.8,2.8,0,0,1-.52.68c-.23.34-.45.66-.68.94a7.63,7.63,0,0,1-.69.77L151,86.76v.17a90.64,90.64,0,0,0-5.48,8.3q-1.89,3.34.17,4.71a2.39,2.39,0,0,0,2.05.17,14.59,14.59,0,0,0,2.74-1.37,22.75,22.75,0,0,0,4.11-3.42q2.4-2.4,4.45-4.71t3.77-4.2C164.1,85,165.29,83.79,166.44,82.65Z"/>
    <path class="cls-1" d="M202.57,104.91a24.1,24.1,0,0,1-3.43-2.91c-.57.8-1.06,1.45-1.45,2l-1.2,1.55c-.4.51-.86,1-1.37,1.62s-1.12,1.26-1.8,2.06q3.77-.34,7.36-.43a45.86,45.86,0,0,1,6.51.26,17.69,17.69,0,0,1,6.93,1.88,8.48,8.48,0,0,1,3.26,3.08,6.87,6.87,0,0,1,.94,3.26,10.5,10.5,0,0,1-.17,2.22c-.57,1.26-1.09,2.34-1.54,3.25a7.67,7.67,0,0,1-1.72,1.8c-.57.4-1.31.26-2.22-.43-.57-.45-1.52-1.14-2.83-2a30.6,30.6,0,0,0-5.05-2.74,38.74,38.74,0,0,0-7.45-2.31,47.65,47.65,0,0,0-10-.94q-3.78,4.11-7.71,7.79a85.94,85.94,0,0,1-7.79,6.5,35.09,35.09,0,0,1-7.71,4.37,19.52,19.52,0,0,1-7.27,1.54,10.57,10.57,0,0,1-4-.68,12.79,12.79,0,0,1-2.74-1.54,7.47,7.47,0,0,1-1.62-1.63,3,3,0,0,1-.52-.94,9.65,9.65,0,0,1-.94-3.6q-.25-2.4,2.31-5.22c1.71-1.88,4.68-3.83,8.91-5.82s10.5-3.85,18.83-5.57c1.48-1.82,2.6-3.28,3.34-4.36s1.85-2.6,3.34-4.54a22.68,22.68,0,0,1-7,5A6.9,6.9,0,0,1,170,107a17.22,17.22,0,0,1-5.39-6,18.92,18.92,0,0,1-2.14-7.11,22.59,22.59,0,0,1,.6-7.53,26.73,26.73,0,0,1,2.82-7.11,45.28,45.28,0,0,1,5.14-6.76,34.74,34.74,0,0,1,7.88-6.59c1.37-.8,3.16-1.8,5.39-3a44.84,44.84,0,0,1,7.19-3.08,37.39,37.39,0,0,1,8-1.72,19.42,19.42,0,0,1,7.88.77,14,14,0,0,1,3.77,1.55A9.07,9.07,0,0,1,213.7,63a8.68,8.68,0,0,1,1.37,4.45,6.47,6.47,0,0,1-.86,2.91,1.51,1.51,0,0,1-.86,1v.18a2.57,2.57,0,0,1-1,.34,3.32,3.32,0,0,1-1-.17c-.57-.23-.8-.74-.69-1.54a2.31,2.31,0,0,0,.17-1c-.11-1.37-1.25-2.23-3.42-2.57a15.23,15.23,0,0,0-6.76.86,36.81,36.81,0,0,0-6.6,3.16,43.42,43.42,0,0,0-6.16,4.54q-2.91,2.56-5.48,4.8A75.38,75.38,0,0,0,177,86.33,44.53,44.53,0,0,0,172.69,93a17.8,17.8,0,0,0-2,5.56q-.34,2.4,1.71,2.91c1.14.34,3-.51,5.48-2.57A93.33,93.33,0,0,0,186,91.38q4.28-4.45,8.13-9.08t5.74-7c.11,0,.17-.11.17-.34a15.36,15.36,0,0,1,3.68-3.25,4.63,4.63,0,0,1,4.36-.52c3.66,1.26,5.68,2.72,6.08,4.37a7,7,0,0,1-.42,4.71l-1.29,2.31c-.28.51-.54,1-.77,1.37s-.34.54-.34.43c-1,1.71-2,3.37-2.91,5a30.14,30.14,0,0,0-2.14,4.46,10.32,10.32,0,0,0-.77,3.59,2.49,2.49,0,0,0,1,2.23,3,3,0,0,0,2.23.17,11.76,11.76,0,0,0,2.57-1.37A23,23,0,0,0,215.07,95q2.06-2.39,3.93-4.62t3.43-4.11q1.71-2.05,3.25-3.94a10.27,10.27,0,0,1,2.23-2.22,1.56,1.56,0,0,1,1.63-.09c.51.29.76,1.23.76,2.83a2.43,2.43,0,0,1-.17,1.54c-.23.57-.51,1.26-.85,2A10.12,10.12,0,0,1,227.57,89q-1.38,1.55-3.34,3.85t-4,4.54q-2.05,2.23-3.68,4c-1.09,1.2-1.8,2-2.14,2.31a8.44,8.44,0,0,1-5.65,2.82A9.65,9.65,0,0,1,202.57,104.91Zm-50.18,25q2.4,2.91,7.37-.6a67.48,67.48,0,0,0,11.13-10.53q-8.73,2.06-12.67,4.11a19.74,19.74,0,0,0-5.31,3.59Q151.37,128.37,152.39,129.91Z"/>
    <path class="cls-1" d="M256.16,86.58a113.93,113.93,0,0,1-9.42,12.68q-2.06,2.22-4.19,4.19a21.63,21.63,0,0,1-4.37,3.17,12.2,12.2,0,0,1-4.28,1.45,5.77,5.77,0,0,1-3.94-.94,17.45,17.45,0,0,1-5.39-5.91,18.29,18.29,0,0,1-2.14-7.1,22.43,22.43,0,0,1,.6-7.54,27.45,27.45,0,0,1,2.82-7,34.71,34.71,0,0,1,5.23-6.76A50.67,50.67,0,0,1,239,66l1-.69a1.64,1.64,0,0,1,.69-.43,2.76,2.76,0,0,0,.86-.42,47.62,47.62,0,0,1,11.3-4.8A31,31,0,0,1,267.46,59a13.53,13.53,0,0,1,3.77,1.54,8.27,8.27,0,0,1,2.48,2.57A9.18,9.18,0,0,1,275,67.58c-.12.8-.2,1.37-.26,1.71a4.51,4.51,0,0,1-.43,1.2,2.18,2.18,0,0,1-1,1v.17a2.57,2.57,0,0,1-1,.34,2,2,0,0,1-.86-.17c-.57-.23-.8-.74-.68-1.54v-1c-.23-1.37-1.32-2.17-3.26-2.4-1-.22-2.85,0-5.48.69A35.79,35.79,0,0,0,252.56,72a13.2,13.2,0,0,0-2,1.2c-.63.46-1.29.91-2,1.37a2.66,2.66,0,0,1-.52.43,2.69,2.69,0,0,0-.51.43h-.17a57.19,57.19,0,0,0-5.14,4.62q-2.56,2.91-5.22,6.42a52.87,52.87,0,0,0-4.37,6.68,17,17,0,0,0-2,5.56,2.48,2.48,0,0,0,1.71,3.08c1.14.35,3-.54,5.56-2.65A87.66,87.66,0,0,0,246,91.55q4.2-4.45,8.05-9.08t5.74-7c.11,0,.17,0,.17-.09s.05-.09.17-.09a18.81,18.81,0,0,1,3.6-3.34,4.66,4.66,0,0,1,4.45-.6c3,.92,4.85,2.23,5.65,3.94a5.16,5.16,0,0,1-.17,5v.34a.15.15,0,0,0-.17.17c0,.12,0,.17-.09.17s-.09.06-.09.18l-.17.17v.17l-.17.17a2.08,2.08,0,0,0-.51.85,2.18,2.18,0,0,1-.52.86v.17a.15.15,0,0,0-.17.17v.18a.15.15,0,0,0-.17.17l-.17.17v.17a.15.15,0,0,0-.17.17q-1.55,2.56-2.91,5A28.46,28.46,0,0,0,266.18,94a11.05,11.05,0,0,0-.77,3.68,2.48,2.48,0,0,0,1,2.23,2.89,2.89,0,0,0,2.23.17,12.72,12.72,0,0,0,2.65-1.37A16.08,16.08,0,0,0,275,95.15q2.06-2.4,3.93-4.63t3.43-4.11c1.25-1.37,2.4-2.68,3.42-3.94A10.49,10.49,0,0,1,288,80.25a1.4,1.4,0,0,1,1.54-.09c.46.29.69,1.23.69,2.83a9,9,0,0,1-.17,1.71c-.24.57-.49,1.23-.78,2a8.72,8.72,0,0,1-1.62,2.48L284.24,93q-2.06,2.31-4.11,4.53t-3.59,4c-1,1.2-1.71,2-2.06,2.31a9.07,9.07,0,0,1-5.73,2.83,9.51,9.51,0,0,1-6.08-1.63,24.51,24.51,0,0,1-3.26-2.66,14.24,14.24,0,0,1-2.91-4,14.61,14.61,0,0,1-1.45-5.31A14.83,14.83,0,0,1,256.16,86.58Z"/>
    <path class="cls-1" d="M340.41,52.51a9.52,9.52,0,0,1,4.11-.43,6.75,6.75,0,0,1,3.16,1.2,5.79,5.79,0,0,1,1.89,2.23,3.44,3.44,0,0,1,.25,2.48,1.61,1.61,0,0,1-1.28,1,9.39,9.39,0,0,1-1.29.17,32.17,32.17,0,0,0-.77,4.71,49.13,49.13,0,0,0,.26,10.18,57.4,57.4,0,0,0,.94,6.6c.4,1.88.74,3.57,1,5a21.89,21.89,0,0,1,.43,4,7.77,7.77,0,0,1-.86,3.51,26.9,26.9,0,0,1-18.49,13.87,14.07,14.07,0,0,1-6.51.17,9.31,9.31,0,0,1-4.45-2.39,8.71,8.71,0,0,1-2.31-4,7.86,7.86,0,0,1,.26-4.71c.34-1.59,1.6-3.42,3.76-5.48A31.28,31.28,0,0,1,329,85.21a45,45,0,0,1,12.24-3.42,44,44,0,0,1,15.24.68,5.09,5.09,0,0,1,3.25,2.06q1,1.55.18,2.4a1.7,1.7,0,0,1-1.72.17,4.1,4.1,0,0,1-1-.52,32.29,32.29,0,0,0-15.16.78,35.21,35.21,0,0,0-10.87,5.47,23.35,23.35,0,0,0-6.08,6.51c-1.2,2.12-1.34,3.34-.43,3.68q2.57,1.55,5.91-1a16.65,16.65,0,0,0,5.22-7.54,11.41,11.41,0,0,0,.6-4.36,32.65,32.65,0,0,0-.68-5.4c-.4-1.94-.83-4-1.29-6.08a59.59,59.59,0,0,1-1-6.42c-1.83,2.29-3.4,4.31-4.71,6.08s-2.43,3.28-3.34,4.54a31.18,31.18,0,0,0-2.74,3.76A8,8,0,0,1,320,88.9a4.78,4.78,0,0,1-1.71.42,1.09,1.09,0,0,1-1-.68L317,88a1.82,1.82,0,0,1,0-1.55,28.56,28.56,0,0,1,2.65-4.7c1.32-2,2.77-4.14,4.37-6.43s3.25-4.56,5-6.85,3.2-4.28,4.46-6a13,13,0,0,1,1.71-4.79,17.56,17.56,0,0,1,2.4-3.09A9.74,9.74,0,0,1,340.41,52.51Z"/>
    <path class="cls-1" d="M397.94,87.27a.36.36,0,0,1-.26-.09.37.37,0,0,0-.25-.08,2.46,2.46,0,0,1-1-.17,53.77,53.77,0,0,1-2.57,4.88,33.88,33.88,0,0,1-3.25,4.36q-4.45,5.65-8.48,7.88a33.48,33.48,0,0,1-7.1,3.08,4.34,4.34,0,0,1-1.37.43,11.16,11.16,0,0,0-1.38.26,14.67,14.67,0,0,1-6.07.08,12.11,12.11,0,0,1-4.54-2,14.75,14.75,0,0,1-3.17-3.08,16.88,16.88,0,0,1-2-3.25A15.8,15.8,0,0,1,355.22,93a24.38,24.38,0,0,1,1.45-7.28,33.47,33.47,0,0,1,3.6-7.36,64.25,64.25,0,0,1,6-8.05l.34-.35.52-.51a6.1,6.1,0,0,0,.6-.68,4.61,4.61,0,0,1,.94-.86,44.42,44.42,0,0,1,10-7.11,35.43,35.43,0,0,1,13.78-4.19,11.62,11.62,0,0,1,3.94.68,8.16,8.16,0,0,1,2.91,1.8A7,7,0,0,1,401.19,63v1.62a3.88,3.88,0,0,1-.34,1.29,5.15,5.15,0,0,1-.34.59,5.58,5.58,0,0,0-.34.6H400a1,1,0,0,1-.69.69,3.32,3.32,0,0,1-1,.17c-.68,0-1-.46-1-1.37a.62.62,0,0,0,0-.86q-.33-2.06-3.59-1.54a28.14,28.14,0,0,0-4.88,2.14,37.74,37.74,0,0,0-8.31,6.42c-.57.58-1.08,1.15-1.54,1.72l-1.37,1.71a2.11,2.11,0,0,0-1,1c-.69.91-1.37,1.79-2.06,2.65A21.81,21.81,0,0,0,372.43,83a45.39,45.39,0,0,0-4.2,8.05,27.55,27.55,0,0,0-1.63,7c.12,2.17.72,3.57,1.8,4.19a5.34,5.34,0,0,0,3.94.43,15.35,15.35,0,0,0,4.88-2.14,43.72,43.72,0,0,0,4.62-3.34c1.14-1.14,1.91-1.88,2.32-2.23a26.64,26.64,0,0,0,2-2,18.86,18.86,0,0,0,3.25-5,3.4,3.4,0,0,0,.17-2.75,21.82,21.82,0,0,0-1.28-2.48A13.71,13.71,0,0,1,387,79.91a6.15,6.15,0,0,1,.34-3.94c.35-.8.66-1.51.95-2.14a5.35,5.35,0,0,1,1.11-1.63,9.61,9.61,0,0,1,3.51-2.82,12,12,0,0,1,3.17-.95,1.17,1.17,0,0,1,.85-.34h.52a1.42,1.42,0,0,1,1,.34,2.58,2.58,0,0,1,1.55,1.2,3.75,3.75,0,0,1,.34,1.89,21.18,21.18,0,0,1-.26,3.08c-.17,1.14-.34,2.25-.51,3.34s-.32,2-.43,2.65a11.36,11.36,0,0,0-.26,1.37,6.35,6.35,0,0,1-.43,1.54,1,1,0,0,0,.69-.17,20.31,20.31,0,0,0,4.28-1.28c1.14-.52,2-.89,2.57-1.12,1.25-.57,2.19-1,2.82-1.19s.94.11.94,1a2,2,0,0,0-.17.86V82A4.8,4.8,0,0,1,409,84a5.61,5.61,0,0,1-2.48,2.22,11.36,11.36,0,0,1-3.34,1.12A14.91,14.91,0,0,1,397.94,87.27Z"/>
    <path class="cls-1" d="M434.92,86.58a113.93,113.93,0,0,1-9.41,12.68q-2.06,2.22-4.2,4.19a21.36,21.36,0,0,1-4.37,3.17,12.2,12.2,0,0,1-4.28,1.45,5.73,5.73,0,0,1-3.93-.94,17.48,17.48,0,0,1-5.4-5.91,18.29,18.29,0,0,1-2.14-7.1,22.43,22.43,0,0,1,.6-7.54,27.12,27.12,0,0,1,2.83-7,34.61,34.61,0,0,1,5.22-6.76,51.13,51.13,0,0,1,8-6.76l1-.69a1.61,1.61,0,0,1,.68-.43,2.66,2.66,0,0,0,.86-.42,47.8,47.8,0,0,1,11.3-4.8A31,31,0,0,1,446.23,59,13.46,13.46,0,0,1,450,60.56a8.3,8.3,0,0,1,2.49,2.57,9.07,9.07,0,0,1,1.28,4.45c-.11.8-.2,1.37-.26,1.71a4.81,4.81,0,0,1-.42,1.2,2.27,2.27,0,0,1-1,1v.17a2.6,2.6,0,0,1-1,.34,2,2,0,0,1-.86-.17c-.57-.23-.8-.74-.68-1.54v-1c-.23-1.37-1.31-2.17-3.25-2.4-1-.22-2.86,0-5.48.69A35.5,35.5,0,0,0,431.33,72a13.29,13.29,0,0,0-2,1.2c-.63.46-1.28.91-2,1.37a2.69,2.69,0,0,1-.51.43,2.39,2.39,0,0,0-.52.43h-.17a57.19,57.19,0,0,0-5.14,4.62q-2.57,2.91-5.22,6.42a54,54,0,0,0-4.37,6.68,17.24,17.24,0,0,0-2,5.56,2.48,2.48,0,0,0,1.71,3.08c1.14.35,3-.54,5.57-2.65a87.66,87.66,0,0,0,8.05-7.62c2.79-3,5.48-6,8-9.08s4.48-5.42,5.74-7c.11,0,.17,0,.17-.09s.06-.09.17-.09a18.81,18.81,0,0,1,3.6-3.34,4.66,4.66,0,0,1,4.45-.6q4.45,1.38,5.65,3.94a5.13,5.13,0,0,1-.17,5v.34a.15.15,0,0,0-.17.17c0,.12,0,.17-.09.17s-.08.06-.08.18l-.17.17v.17l-.17.17a2.1,2.1,0,0,0-.52.85,2.06,2.06,0,0,1-.51.86v.17a.15.15,0,0,0-.17.17v.18c-.12,0-.18.05-.18.17l-.17.17v.17a.15.15,0,0,0-.17.17c-1,1.71-2,3.37-2.91,5A30.32,30.32,0,0,0,444.94,94a11.31,11.31,0,0,0-.77,3.68,2.47,2.47,0,0,0,1,2.23,2.87,2.87,0,0,0,2.22.17,13,13,0,0,0,2.66-1.37,16.28,16.28,0,0,0,3.68-3.59l3.94-4.63c1.25-1.48,2.4-2.85,3.42-4.11q1.89-2.05,3.43-3.94a10.25,10.25,0,0,1,2.22-2.22,1.42,1.42,0,0,1,1.55-.09c.45.29.68,1.23.68,2.83a9,9,0,0,1-.17,1.71c-.23.57-.49,1.23-.77,2a8.78,8.78,0,0,1-1.63,2.48L463,93q-2.06,2.31-4.11,4.53t-3.6,4c-1,1.2-1.71,2-2.05,2.31a9.12,9.12,0,0,1-5.74,2.83,9.53,9.53,0,0,1-6.08-1.63,24.47,24.47,0,0,1-3.25-2.66,14,14,0,0,1-2.91-4,14.62,14.62,0,0,1-1.46-5.31A14.83,14.83,0,0,1,434.92,86.58Z"/>
  </g>
</svg>
